<?xml version="1.0" encoding="utf-8"?>
<!-- Generator: Adobe Illustrator 25.4.1, SVG Export Plug-In . SVG Version: 6.00 Build 0)  -->
<!DOCTYPE svg PUBLIC "-//W3C//DTD SVG 1.1//EN" "http://www.w3.org/Graphics/SVG/1.1/DTD/svg11.dtd" [
	<!ENTITY ns_extend "http://ns.adobe.com/Extensibility/1.0/">
	<!ENTITY ns_ai "http://ns.adobe.com/AdobeIllustrator/10.0/">
	<!ENTITY ns_graphs "http://ns.adobe.com/Graphs/1.0/">
	<!ENTITY ns_vars "http://ns.adobe.com/Variables/1.0/">
	<!ENTITY ns_imrep "http://ns.adobe.com/ImageReplacement/1.0/">
	<!ENTITY ns_sfw "http://ns.adobe.com/SaveForWeb/1.0/">
	<!ENTITY ns_custom "http://ns.adobe.com/GenericCustomNamespace/1.0/">
	<!ENTITY ns_adobe_xpath "http://ns.adobe.com/XPath/1.0/">
]>
<svg version="1.1" id="Layer_1" xmlns:x="&ns_extend;" xmlns:i="&ns_ai;" xmlns:graph="&ns_graphs;"
	 xmlns="http://www.w3.org/2000/svg" xmlns:xlink="http://www.w3.org/1999/xlink" x="0px" y="0px" width="256.6px" height="60.5px"
	 viewBox="0 0 256.6 60.5" style="enable-background:new 0 0 256.6 60.5;" xml:space="preserve">
<style type="text/css">
	.st0{fill:#FFFFFF;}
	.st1{fill:#F15A29;}
	.st2{fill:#F37029;}
	.st3{fill:#F08D27;}
	.st4{fill:#FAA227;}
	.st5{fill:#FAAD56;}
	.st6{fill:#EB5E28;}
	.st7{fill:#DC5328;}
	.st8{fill:#C94627;}
	.st9{fill:#D14E23;}
	.st10{fill:#B5431B;}
	.st11{fill:#A03A22;}
	.st12{fill:#AD3E25;}
	.st13{fill:#F17824;}
	.st14{fill:#F58348;}
	.st15{fill:#F9C793;}
</style>
<metadata>
	<sfw  xmlns="&ns_sfw;">
		<slices></slices>
		<sliceSourceBounds  bottomLeftOrigin="true" height="56.3" width="256.6" x="0" y="-22.4"></sliceSourceBounds>
	</sfw>
</metadata>
<path class="st0" d="M89.3,45.2c-0.3,0-0.8-0.3-0.8-0.8V29.8H72.9v14.6c0,0.5-0.3,0.8-0.8,0.8c-0.3,0-0.8-0.3-0.8-0.8V16
	c0-0.5,0.3-0.8,0.8-0.8c0.3,0,0.8,0.3,0.8,0.8v12.3h15.6V16c0-0.5,0.3-0.7,0.8-0.7c0.3,0,0.8,0.3,0.8,0.8v28.5
	C90.1,44.9,89.6,45.2,89.3,45.2"/>
<path class="st0" d="M101,45.7c-3.6,0-6.9-2.1-6.9-6.1c0-3.5,2.8-5.4,6.1-6.1l5.9-1.3v-2.1c0-3-1.6-4.8-5.1-4.8
	c-3.8,0-4.3,2.3-5.1,2.3c-0.3,0-0.8-0.3-0.8-0.8c0-0.3,0.3-0.7,0.5-1c1.5-1.6,3.5-2.3,5.4-2.3c4.3,0,6.7,2.6,6.7,6.4v9.2
	C107.6,43.1,104.6,45.7,101,45.7 M106.1,33.9l-5.6,1.2c-2.8,0.7-4.8,2.1-4.8,4.6c0,2.8,2.1,4.4,5.1,4.4c3,0,5.1-2,5.1-4.8
	L106.1,33.9L106.1,33.9z"/>
<path class="st0" d="M130.9,44.6c-0.2,0.5-0.5,0.7-0.8,0.7s-0.7-0.2-0.8-0.7l-5.6-17.3l-5.6,17.3c-0.2,0.5-0.5,0.7-0.8,0.7
	s-0.7-0.2-0.8-0.7l-5.8-19.4c-0.2-0.7,0.2-1.2,0.8-1.2c0.3,0,0.7,0.2,0.8,0.7l5.1,17.3l5.6-17.3c0.2-0.5,0.5-0.7,0.8-0.7
	s0.7,0.2,0.8,0.7l5.6,17.3l5.1-17.3c0.2-0.3,0.5-0.7,0.8-0.7c0.7,0,1,0.5,0.8,1.2L130.9,44.6z"/>
<path class="st0" d="M154,45.2c-0.3,0-0.5,0-0.7-0.3l-7.7-10.4l-3.6,4.3v5.6c0,0.5-0.3,0.8-0.8,0.8c-0.3,0-0.8-0.3-0.8-0.8V16
	c0-0.5,0.3-0.8,0.8-0.8c0.3,0,0.8,0.3,0.8,0.8v20.6l10.4-12c0.2-0.2,0.3-0.3,0.7-0.3c0.3,0,0.8,0.3,0.8,0.8c0,0.2,0,0.3-0.2,0.5
	l-6.9,7.9l8.1,10.7c0.2,0.2,0.2,0.3,0.2,0.5C154.8,44.9,154.5,45.2,154,45.2"/>
<path class="st0" d="M173.9,45.2h-14.8c-0.5,0-0.8-0.3-0.8-0.8V16c0-0.5,0.3-0.8,0.8-0.8h14.8c0.5,0,0.8,0.3,0.8,0.8
	c0,0.3-0.3,0.8-0.8,0.8h-14.1v11.8h12.8c0.5,0,0.8,0.3,0.8,0.8c0,0.3-0.3,0.8-0.8,0.8h-12.8v13.5h14.1c0.5,0,0.8,0.3,0.8,0.8
	C174.8,44.9,174.5,45.2,173.9,45.2"/>
<path class="st0" d="M192.3,25.2l-10.4,27.5c-0.2,0.3-0.5,0.5-0.8,0.5c-0.5,0-0.8-0.3-0.8-0.8c0-0.2,0-0.2,0-0.3l2.8-7.7l-6.7-19.1
	c0-0.2,0-0.2,0-0.3c0-0.5,0.3-0.8,0.8-0.8c0.3,0,0.7,0.2,0.8,0.5l6.3,17.6l6.6-17.6c0.2-0.3,0.5-0.5,0.8-0.5s0.8,0.3,0.8,0.8
	C192.4,25,192.4,25,192.3,25.2"/>
<path class="st0" d="M209.1,34.7h-12.3v3.6c0,3.1,2.8,5.8,6.1,5.8c1.6,0,3.8-0.7,4.8-2c0.2-0.3,0.5-0.3,0.7-0.3
	c0.3,0,0.8,0.3,0.8,0.8c0,0.3-0.3,0.7-0.5,1c-1.5,1.6-3.6,2.1-5.8,2.1c-4.1,0-7.7-3.1-7.7-7.4v-7.4c0-4.1,3.3-7.4,7.4-7.4
	c4.1,0,7.4,3.3,7.4,7.4v2.8C209.9,34.2,209.6,34.7,209.1,34.7 M208.2,31.1c0-3.1-2.5-5.8-5.8-5.8s-5.8,2.5-5.8,5.8v2h11.5V31.1
	L208.2,31.1z"/>
<path class="st0" d="M218.8,30.3c-1.5,0-2.8-0.8-3.5-2c0-0.2-0.2-0.2-0.2-0.3c0-0.3,0.3-0.5,0.5-0.5s0.3,0.2,0.5,0.3l0.2,0.2
	c0.7,0.8,1.5,1.3,2.5,1.3c1.6,0,3.1-1.3,3.1-3s-1.5-3-3.1-3c-0.3,0-0.7-0.3-0.7-0.7c0-0.3,0.2-0.7,0.7-0.7c1.6,0,3-1.2,3-2.8
	s-1.2-2.8-3-2.8c-1,0-2,0.7-2.5,1.6c-0.2,0.2-0.3,0.3-0.5,0.3c-0.3,0-0.7-0.2-0.7-0.5c0-0.2,0-0.2,0.2-0.3c0,0,0.2-0.2,0.2-0.3
	c0.8-1.2,1.8-1.6,3.3-1.6c2.3,0,4.1,1.5,4.1,3.8c0,1.6-0.8,2.6-1.8,3.5c1.3,0.7,2,1.8,2,3.5C222.9,28.5,221.1,30.3,218.8,30.3"/>
<path class="st0" d="M233.7,26c0,2.3-1.8,4.3-4.3,4.3s-4.3-1.8-4.3-4.3v-1.5c0-3.8,1.5-7.4,4.9-8.7c0.7-0.3,1-0.3,1.2-0.3
	c0.3,0,0.5,0.3,0.5,0.7c0,0.2-0.2,0.5-0.5,0.5c0,0-0.3,0-0.8,0.2c-2,0.8-3.3,2.5-3.9,4.6c0.8-0.7,1.6-1,2.6-1c2.3,0,4.3,1.8,4.3,4.3
	L233.7,26L233.7,26z M232.6,24.7c0-1.6-1.5-3.1-3.1-3.1c-1.6,0-3.1,1.5-3.1,3.1v1.5c0,1.6,1.5,3.1,3.1,3.1c1.6,0,3.1-1.5,3.1-3.1
	V24.7z"/>
<path class="st0" d="M244.1,26c0,2.3-1.8,4.3-4.3,4.3c-2.3,0-4.3-1.8-4.3-4.3v-6.4c0-2.3,1.8-4.3,4.3-4.3c2.3,0,4.3,1.8,4.3,4.3V26z
	 M242.9,19.7c0-1.6-1.5-3.1-3.1-3.1c-1.6,0-3.1,1.5-3.1,3.1v6.4c0,1.6,1.5,3.1,3.1,3.1c1.6,0,3.1-1.5,3.1-3.1V19.7z"/>
<polygon class="st1" points="15.8,27.1 30.9,42.3 36.5,21.7 "/>
<polygon class="st2" points="47.5,35.5 30.9,42.3 36.5,21.7 "/>
<polygon class="st3" points="47.5,35.5 52.1,20.2 36.5,21.7 "/>
<polygon class="st4" points="47.5,35.5 52.1,20.2 56.1,38 "/>
<polygon class="st5" points="56.4,22.9 52.1,20.2 56.1,38 "/>
<polygon class="st6" points="47.5,35.5 30.9,42.3 43.9,51 "/>
<polygon class="st7" points="47.5,35.5 56.1,38 43.9,51 "/>
<polygon class="st8" points="48.7,51 56.1,38 43.9,51 "/>
<polygon class="st9" points="24.7,56.3 30.9,42.3 43.9,51 "/>
<polygon class="st10" points="24.7,56.3 30.9,42.3 13.3,44.7 "/>
<polygon class="st9" points="15.8,27.1 30.9,42.3 13.3,44.7 "/>
<polygon class="st11" points="24.7,56.3 7.6,50.5 13.3,44.7 "/>
<polygon class="st11" points="24.7,56.3 35.5,58.4 43.9,51 "/>
<polygon class="st9" points="24.7,56.3 35.5,58.4 20.7,57.9 "/>
<polygon class="st10" points="24.7,56.3 7.6,50.5 20.7,57.9 "/>
<polygon class="st10" points="48.7,51 35.5,58.4 43.9,51 "/>
<polygon class="st12" points="2.1,33.7 7.6,50.5 13.3,44.7 "/>
<polygon class="st11" points="2.1,33.7 7.6,50.5 0.5,37.8 "/>
<polygon class="st10" points="15.8,27.1 2.1,33.7 13.3,44.7 "/>
<polygon class="st10" points="2.1,33.7 0,22.5 0.5,37.8 "/>
<polygon class="st9" points="15.8,27.1 2.1,33.7 7.1,14.1 "/>
<polygon class="st2" points="15.8,27.1 22.5,10.5 36.5,21.7 "/>
<polygon class="st6" points="15.8,27.1 22.5,10.5 7.1,14.1 "/>
<polygon class="st12" points="0,22.5 2.1,33.7 7.1,14.1 "/>
<polygon class="st2" points="20.4,2.3 22.5,10.5 7.1,14.1 "/>
<polygon class="st9" points="20.4,2.3 8.1,9.4 7.1,14.1 "/>
<polygon class="st11" points="0,22.5 8.1,9.4 7.1,14.1 "/>
<polygon class="st13" points="38.3,5.9 22.5,10.5 36.5,21.7 "/>
<polygon class="st4" points="38.3,5.9 52.1,20.2 36.5,21.7 "/>
<polygon class="st5" points="38.3,5.9 52.1,20.2 49.3,9.5 "/>
<polygon class="st6" points="38.3,5.9 22.5,10.5 20.4,2.3 "/>
<polygon class="st14" points="38.3,5.9 36.2,2.1 20.4,2.3 "/>
<polygon class="st15" points="38.3,5.9 36.2,2.1 49.3,9.5 "/>
<polygon class="st3" points="56.4,22.9 52.1,20.2 49.3,9.5 "/>
<g>
	<path class="st0" d="M250.7,18.3h1.6c1.2,0,1.6,0.5,1.6,1.3c0,0.8-0.5,1.3-1.3,1.3l1.3,2h-0.8l-1.3-2h-0.7v2h-0.8L250.7,18.3
		L250.7,18.3z M251.5,20.2h1c0.7,0,1-0.2,1-0.8c0-0.5-0.5-0.7-1-0.7h-1V20.2z"/>
</g>
<path class="st0" d="M252,16c-2.5,0-4.6,2-4.6,4.6s2,4.6,4.6,4.6c2.6,0,4.6-2,4.6-4.6S254.6,16,252,16z M252.2,24.3
	c-2,0-3.6-1.6-3.6-3.9l0,0l0,0c0-2.1,1.6-3.9,3.6-3.9c2,0,3.6,1.6,3.6,3.9l0,0l0,0C255.8,22.5,254.3,24.3,252.2,24.3z"/>
</svg>
